<svg width="160" height="160" fill="none" xmlns="http://www.w3.org/2000/svg"><path d="M97.349 37.49c0-.736-.578-1.49-1.311-1.49H53.053c-.733 0-1.381.754-1.381 1.49v3.522h45.676l.001-3.522ZM98.202 117.809h-9.597v-10.383h-6.958v2.507H62.774c-.537-1.254-1.757-2.148-3.181-2.148H47.559c-1.917-.001-3.559 1.602-3.559 3.526v3.018c0 1.924 1.642 3.48 3.559 3.48h12.035c1.511 0 2.792-.896 3.269-2.326h18.785v2.326H72.13c-.533 0-1.01.437-1.01.972v3.172c0 .535.478 1.048 1.01 1.048h26.072c.533 0 .93-.513.93-1.048v-3.173c0-.535-.397-.971-.93-.971ZM104.666 48.39a7.037 7.037 0 0 0-6.771-5.05H51.148C47.25 43.34 44 46.449 44 50.361v46.9c0 3.912 3.25 7.121 7.148 7.121h46.747c3.898 0 7.126-3.209 7.126-7.121V86.915a23.228 23.228 0 0 0 10.001-19.164c-.001-8.079-4.132-15.181-10.356-19.361ZM56.238 98.151c-3.259 0-5.901-2.65-5.901-5.921 0-3.27 2.642-5.922 5.901-5.922s5.902 2.652 5.902 5.922c0 3.271-2.643 5.921-5.902 5.921Zm5.961-32.605a1.42 1.42 0 0 1-1.418 1.422h-8.94a1.42 1.42 0 0 1-1.418-1.422v-14.16a1.42 1.42 0 0 1 1.418-1.423h8.939a1.42 1.42 0 0 1 1.418 1.423l.001 14.16Zm29.563 22.312c-11.076 0-20.057-9.01-20.057-20.123 0-11.113 8.98-20.124 20.057-20.124 11.077 0 20.058 9.01 20.058 20.124 0 11.114-8.981 20.123-20.058 20.123Z" fill="#363636"/><path d="M91.762 79.964c6.731 0 12.188-5.475 12.188-12.229s-5.457-12.229-12.188-12.229c-6.731 0-12.188 5.475-12.188 12.229s5.457 12.229 12.188 12.229ZM75.562 69.171a1.435 1.435 0 1 0 0-2.87 1.435 1.435 0 0 0 0 2.87ZM107.963 69.171a1.435 1.435 0 1 0 0-2.87 1.435 1.435 0 0 0 0 2.87ZM83.109 55.429a1.435 1.435 0 1 0 0-2.87 1.435 1.435 0 0 0 0 2.87ZM100.415 82.912c.79 0 1.43-.643 1.43-1.436 0-.793-.64-1.436-1.43-1.436-.79 0-1.43.643-1.43 1.436 0 .793.64 1.436 1.43 1.436ZM99.697 55a1.435 1.435 0 1 0 0-2.87 1.435 1.435 0 0 0 0 2.87ZM83.828 83.341a1.435 1.435 0 1 0 0-2.87 1.435 1.435 0 0 0 0 2.87Z" fill="#363636"/></svg>