<svg width="160" height="160" fill="none" xmlns="http://www.w3.org/2000/svg"><path d="M26.05 45.26c-5.54.49-10.21 1.6-11.47 2.67-.73.62-.73.62-.24 1.16.65.72 3.72 1.64 7.25 2.23 4 .67 12.51.7 13.72.05 1.22-.66 1.63-1.4 1.63-2.98 0-1.62-.62-2.41-2.22-2.85-1.45-.39-5.78-.54-8.67-.28ZM39.77 45.49c-.12.28-.25 2.1-.25 4.11 0 4.06.15 3.78-2.2 3.93l-1.03.08-.25 5.09-1.2.28c-2.57.67-3.99 2.6-3.78 5.3.13 1.92 1.03 3.34 2.58 4.08 1.1.52 1.47.54 11.24.54 5.55 0 10.14.08 10.19.18.05.13-1.1 9.4-2.58 20.64-1.44 11.23-2.68 21-2.7 21.67-.06 1.61.82 2.62 2.34 2.62 1.24 0 2.01-.64 2.32-1.9.13-.52 1.5-10.34 3.02-21.83a727.78 727.78 0 0 1 2.94-20.86c.1 0 1.08 1.4 2.2 3.13 2.93 4.63 2.4 4.32 7.63 4.32h4.36v5.63l-5.14.08c-4.72.07-5.2.12-5.88.61-1.57 1.16-1.62 1.42-1.62 10.98 0 9.53.02 9.79 1.52 11.05l.85.7H95.7l.85-.7c1.5-1.26 1.52-1.52 1.52-11.05 0-9.56-.05-9.82-1.63-10.98-.67-.49-1.16-.54-5.88-.61l-5.13-.08v-5.63h4.36c5.23 0 4.7.3 7.63-4.32a25.53 25.53 0 0 1 2.2-3.13c.07 0 1.42 9.4 2.94 20.86 1.52 11.5 2.89 21.31 3.02 21.83.3 1.26 1.08 1.9 2.32 1.9 1.52 0 2.4-1 2.34-2.62-.02-.67-1.26-10.44-2.7-21.67a899.97 899.97 0 0 1-2.58-20.64c.05-.1 4.64-.18 10.19-.18 9.77 0 10.13-.02 11.24-.54 1.55-.74 2.45-2.16 2.58-4.08a4.75 4.75 0 0 0-3.8-5.3L124 58.7l-.26-5.09-1.03-.08c-2.34-.15-2.2.13-2.2-3.93 0-2-.12-3.83-.25-4.11-.2-.36-.54-.49-1.37-.49-.61 0-1.23.13-1.42.3-.2.21-.3 1.47-.3 3.94 0 2.47-.1 3.73-.31 3.93-.18.18-.9.31-1.65.31-1.63 0-1.66.05-1.66 3.11v2.29H46.48v-2.29c0-3.06-.02-3.1-1.65-3.1-.75 0-1.47-.14-1.65-.32-.2-.2-.31-1.46-.31-3.93s-.1-3.73-.3-3.93c-.19-.18-.81-.31-1.43-.31-.82 0-1.16.13-1.37.49ZM82.62 85.6c2.89.9 5.39 3.4 6.16 6.17.44 1.54.31 4.21-.28 5.78-.7 1.87-2.69 4-4.57 4.94-1.29.64-1.75.71-3.92.71-2.16 0-2.63-.07-3.92-.71a10.22 10.22 0 0 1-4.56-4.94c-.6-1.57-.73-4.24-.29-5.78a9.58 9.58 0 0 1 6.06-6.17 7.56 7.56 0 0 1 5.32 0Z" fill="#363636"/><path d="M77.8 89.44c-2.04.92-3.51 3.65-3.07 5.73a5.43 5.43 0 0 0 8 3.7 5.3 5.3 0 0 0 2.44-5.78 5.38 5.38 0 0 0-5.16-4.14c-.64 0-1.62.23-2.22.49ZM50.1 45.15c-3.93.67-4.52 1.14-4.52 3.45 0 1.82.46 2.41 2.27 2.95 1.55.47 7.17.52 10.5.13 6.86-.82 11.32-2.54 9.7-3.75-1.27-.9-4.9-1.88-9.06-2.39-2.47-.3-8-.54-8.9-.39ZM103.48 45.26c-6.31.59-11.86 2.08-11.86 3.18 0 1.73 7.84 3.47 15.63 3.5 5.8 0 7.2-.64 7.2-3.34 0-1.83-.62-2.62-2.38-3.09-1.65-.4-5.67-.51-8.59-.25ZM126.78 45.28c-1.78.23-3.02.77-3.43 1.5-.4.76-.31 2.9.15 3.57.93 1.3 1.65 1.46 7.07 1.46 3.66 0 5.8-.13 7.87-.49 3.53-.59 6.6-1.51 7.24-2.23.5-.54.5-.54-.23-1.16-1.34-1.13-5.96-2.18-11.92-2.67-3.48-.29-4.48-.29-6.75.02Z" fill="#363636"/></svg>