<svg width="145" height="36" fill="none" xmlns="http://www.w3.org/2000/svg"><path d="M27.2 0v35.3h-7.6v-2.4a9.5 9.5 0 0 1-7.5 3.1C5.5 36 0 30.2 0 22.7 0 15.2 5.5 9.4 12.1 9.4c3.4 0 5.9 1.2 7.5 3.1V0h7.6Zm-7.6 22.7c0-3.8-2.5-6.2-6-6.2s-6 2.4-6 6.2c0 3.8 2.5 6.2 6 6.2 3.5-.1 6-2.4 6-6.2ZM43.7 29.2c2.1 0 3.8-.8 4.8-1.9l6.1 3.5a13 13 0 0 1-11 5.2c-8.6 0-14-5.8-14-13.3C29.6 15.2 35 9.4 43 9.4c7.4 0 12.8 5.7 12.8 13.3 0 1.1-.1 2.1-.3 3H37.6c1 2.6 3.3 3.5 6.1 3.5Zm4.6-9.1c-.8-2.9-3.1-4-5.4-4-2.9 0-4.8 1.4-5.5 4h10.9ZM82.1 10.1l-9.3 25.2h-8.6l-9.3-25.2h8.4l5.3 16 5.3-16h8.2ZM83.4 10.1H91v25.2h-7.6V10.1ZM93.6 22.7A13 13 0 0 1 107 9.4a13 13 0 0 1 11.4 6.5l-6.6 3.8c-.9-1.8-2.7-2.8-4.9-2.8a5.5 5.5 0 0 0-5.7 5.8c0 3.5 2.4 5.8 5.7 5.8 2.2 0 4.1-1.1 4.9-2.8l6.6 3.8A12.8 12.8 0 0 1 107 36a13 13 0 0 1-13.4-13.3ZM132.8 29.2c2.1 0 3.8-.8 4.8-1.9l6.1 3.5a13 13 0 0 1-11 5.2c-8.6 0-14-5.8-14-13.3a13 13 0 0 1 13.4-13.3c7.4 0 12.8 5.7 12.8 13.3 0 1.1-.1 2.1-.3 3h-17.9c1 2.6 3.3 3.5 6.1 3.5Zm4.7-9.1c-.8-2.9-3.1-4-5.4-4-2.9 0-4.8 1.4-5.5 4h10.9ZM83.4 0v10.1L91 0h-7.6Z" fill="#FFC700"/></svg>